<?xml version="1.0" encoding="UTF-8"?>
<svg width="18px" height="20px" viewBox="0 0 18 20" version="1.1" xmlns="http://www.w3.org/2000/svg" xmlns:xlink="http://www.w3.org/1999/xlink">
    <!-- Generator: Sketch 52.6 (67491) - http://www.bohemiancoding.com/sketch -->
    <title>Shape</title>
    <desc>Created with Sketch.</desc>
    <g id="test-frontend" stroke="none" stroke-width="1" fill="none" fill-rule="evenodd">
        <g id="desktop-album-page" transform="translate(-696.000000, -1619.000000)" fill="#FFFFFF" fill-rule="nonzero">
            <g id="player-color" transform="translate(0.000000, 1601.000000)">
                <g id="player">
                    <g id="ico" transform="translate(696.000000, 18.000000)">
                        <path d="M4,5 L14,5 L14,8 L18,4 L14,0 L14,3 L2,3 L2,8 C2,8.55228475 2.44771525,9 3,9 L3,9 C3.55228475,9 4,8.55228475 4,8 L4,5 Z M14,15 L4,15 L4,12 L0,16 L4,20 L4,17 L16,17 L16,12 C16,11.4477153 15.5522847,11 15,11 L15,11 C14.4477153,11 14,11.4477153 14,12 L14,15 Z" id="Shape"></path>
                    </g>
                </g>
            </g>
        </g>
    </g>
</svg>