<?xml version="1.0" encoding="UTF-8"?>
<svg width="19px" height="13px" viewBox="0 0 19 13" version="1.1" xmlns="http://www.w3.org/2000/svg" xmlns:xlink="http://www.w3.org/1999/xlink">
    <!-- Generator: Sketch 52.6 (67491) - http://www.bohemiancoding.com/sketch -->
    <title>Combined Shape</title>
    <desc>Created with Sketch.</desc>
    <g id="test-frontend" stroke="none" stroke-width="1" fill="none" fill-rule="evenodd">
        <g id="desktop-album-page" transform="translate(-744.000000, -1621.000000)" fill="#FFFFFF" fill-rule="nonzero">
            <g id="player-color" transform="translate(0.000000, 1601.000000)">
                <g id="player">
                    <g id="player-navigation" transform="translate(744.000000, 9.000000)">
                        <path d="M10,17.134015 L18.5303226,11.054787 C18.5815438,11.0185719 18.6408525,11 18.7004608,11 C18.7480876,11 18.7960138,11.0117622 18.8397465,11.0352866 C18.9382949,11.0888355 19,11.1943857 19,11.3095313 L19,23.6907841 C19,23.8059297 18.9382949,23.9111704 18.8397465,23.9647193 C18.7414977,24.0176492 18.6222811,24.0108395 18.5303226,23.9455284 L10,17.8663004 L10,23.6907841 C10,23.8059297 9.93829493,23.9111704 9.83974654,23.9647193 C9.7414977,24.0176492 9.62228111,24.0108395 9.53032258,23.9455284 L0.843686636,17.754902 C0.76281106,17.6970196 0.714285714,17.6019935 0.714285714,17.5001577 C0.714285714,17.3983219 0.762511521,17.3032958 0.843686636,17.2454134 L9.53032258,11.054787 C9.58154378,11.0185719 9.64085253,11 9.70046083,11 C9.74808756,11 9.79601382,11.0117622 9.83974654,11.0352866 C9.93829493,11.0888355 10,11.1943857 10,11.3095313 L10,17.134015 Z" id="Combined-Shape"></path>
                    </g>
                </g>
            </g>
        </g>
    </g>
</svg>