<?xml version="1.0" encoding="utf-8"?>
<!-- Generator: Adobe Illustrator 22.1.0, SVG Export Plug-In . SVG Version: 6.00 Build 0)  -->
<svg version="1.1" id="Layer_1" xmlns="http://www.w3.org/2000/svg" xmlns:xlink="http://www.w3.org/1999/xlink" x="0px" y="0px"
	 viewBox="0 0 24 24" style="enable-background:new 0 0 24 24;" xml:space="preserve">
<style type="text/css">
	.st0{fill:#FFFFFF;}
	.st1{fill:#35424F;}
</style>
<title>ico</title>
<desc>Created with Sketch.</desc>
<g id="ico" transform="translate(20.000000, 299.000000)">
	<g id="XMLID_1_">
		<g>
			<rect x="-1.7" y="-289.3" class="st0" width="1.8" height="7.9"/>
			<path class="st1" d="M0.1-281.4v-7.9h-1.8v7.9H0.1z M1.6-290v9.4c0,0.2-0.1,0.4-0.2,0.5c-0.1,0.1-0.3,0.2-0.5,0.2h-3.3
				c-0.2,0-0.4-0.1-0.5-0.2c-0.1-0.1-0.2-0.3-0.2-0.5v-9.4c0-0.2,0.1-0.4,0.2-0.5c0.1-0.1,0.3-0.2,0.5-0.2h3.3
				c0.2,0,0.4,0.1,0.5,0.2C1.5-290.4,1.6-290.2,1.6-290z"/>
			<rect x="-7.9" y="-293.4" class="st0" width="1.8" height="12"/>
			<path class="st1" d="M-6.1-281.4v-12h-1.8v12H-6.1z M-4.6-294.1v13.5c0,0.2-0.1,0.4-0.2,0.5c-0.1,0.1-0.3,0.2-0.5,0.2h-3.3
				c-0.2,0-0.4-0.1-0.5-0.2c-0.1-0.1-0.2-0.3-0.2-0.5v-13.5c0-0.2,0.1-0.4,0.2-0.5c0.1-0.1,0.3-0.2,0.5-0.2h3.3
				c0.2,0,0.4,0.1,0.5,0.2C-4.7-294.5-4.6-294.3-4.6-294.1z"/>
			<rect x="-14.1" y="-287.4" class="st0" width="1.8" height="6"/>
			<path class="st1" d="M-12.3-281.4v-6h-1.8v6H-12.3z M-10.8-288.2v7.5c0,0.2-0.1,0.4-0.2,0.5c-0.1,0.1-0.3,0.2-0.5,0.2h-3.3
				c-0.2,0-0.4-0.1-0.5-0.2c-0.1-0.1-0.2-0.3-0.2-0.5v-7.5c0-0.2,0.1-0.4,0.2-0.5c0.2-0.1,0.3-0.2,0.5-0.2h3.3
				c0.2,0,0.4,0.1,0.5,0.2C-10.9-288.5-10.8-288.4-10.8-288.2z"/>
			<path class="st1" d="M-18.4-276.8H3c0.4,0,0.8,0.3,0.8,0.8c0,0.4-0.3,0.8-0.8,0.8h-21.4c-0.5,0-0.9-0.2-1.2-0.5
				c-0.3-0.3-0.5-0.7-0.5-1.1v-21.3c0-0.4,0.3-0.8,0.8-0.8s0.8,0.3,0.8,0.8v21.3L-18.4-276.8L-18.4-276.8z"/>
		</g>
		<g>
		</g>
	</g>
</g>
</svg>
