<?xml version="1.0" encoding="UTF-8"?>
<svg width="16px" height="16px" viewBox="0 0 16 16" version="1.1" xmlns="http://www.w3.org/2000/svg" xmlns:xlink="http://www.w3.org/1999/xlink">
    <!-- Generator: Sketch 52.6 (67491) - http://www.bohemiancoding.com/sketch -->
    <title>Shape</title>
    <desc>Created with Sketch.</desc>
    <g id="test-frontend" stroke="none" stroke-width="1" fill="none" fill-rule="evenodd">
        <g id="desktop-album-page" transform="translate(-888.000000, -1621.000000)" fill="#FFFFFF" fill-rule="nonzero">
            <g id="player-color" transform="translate(0.000000, 1601.000000)">
                <g id="player">
                    <g id="ico" transform="translate(888.000000, 20.000000)">
                        <path d="M6.59,5.17 L2.11568083,0.704318512 C1.72583383,0.315224109 1.09447088,0.315529115 0.705,0.705 L0.705,0.705 C0.315639251,1.09436075 0.315639251,1.72563925 0.705,2.115 L5.17,6.58 L6.59,5.17 Z M10.5,0 L12.54,2.04 L0.704718956,13.8847191 C0.315467997,14.2742804 0.315593807,14.9055938 0.705,15.295 L0.705,15.295 C1.09440619,15.6844062 1.72571957,15.684532 2.11528093,15.295281 L13.96,3.46 L16,5.5 L16,0 L10.5,0 Z M9.42,10.82 L12.55,13.95 L10.5,16 L16,16 L16,10.5 L13.96,12.54 L10.83,9.41 L9.42,10.82 Z" id="Shape"></path>
                    </g>
                </g>
            </g>
        </g>
    </g>
</svg>