<?xml version="1.0" encoding="utf-8"?>
<!-- Generator: Adobe Illustrator 22.1.0, SVG Export Plug-In . SVG Version: 6.00 Build 0)  -->
<svg version="1.1" id="Layer_1" xmlns="http://www.w3.org/2000/svg" xmlns:xlink="http://www.w3.org/1999/xlink" x="0px" y="0px"
	 viewBox="0 0 22 18" style="enable-background:new 0 0 22 18;" xml:space="preserve">
<style type="text/css">
	.st0{fill:#35424F;}
</style>
<title>ico</title>
<desc>Created with Sketch.</desc>
<g id="test-frontend">
	<g id="catalog-album-Extra-Small-Devices" transform="translate(-332.000000, -21.000000)">
		<g id="menu-mobile-top" transform="translate(-1.000000, 0.000000)">
			<g id="ico" transform="translate(333.000000, 21.000000)">
				<path id="Fill-1" class="st0" d="M1,2h20c0.5,0,1-0.4,1-1s-0.4-1-1-1H1C0.4,0,0,0.4,0,1S0.4,2,1,2"/>
				<path id="Fill-3" class="st0" d="M1,18h20c0.5,0,1-0.4,1-1s-0.4-1-1-1H1c-0.5,0-1,0.4-1,1S0.4,18,1,18"/>
				<path id="Fill-5" class="st0" d="M1,10h20c0.5,0,1-0.4,1-1s-0.4-1-1-1H1C0.4,8,0,8.4,0,9S0.4,10,1,10"/>
			</g>
		</g>
	</g>
</g>
</svg>
