<?xml version="1.0" encoding="utf-8"?>
<!-- Generator: Adobe Illustrator 22.1.0, SVG Export Plug-In . SVG Version: 6.00 Build 0)  -->
<svg version="1.1" id="Layer_1" xmlns="http://www.w3.org/2000/svg" xmlns:xlink="http://www.w3.org/1999/xlink" x="0px" y="0px"
	 viewBox="0 0 24 24" style="enable-background:new 0 0 24 24;" xml:space="preserve">
<style type="text/css">
	.st0{fill:#35424F;}
</style>
<title>ico</title>
<desc>Created with Sketch.</desc>
<g id="test-frontend">
	<g id="catalog-album-tracks" transform="translate(-19.000000, -235.000000)">
		<g id="menu-side" transform="translate(-1.000000, 0.000000)">
			<g id="ico" transform="translate(20.000000, 235.000000)">
				<path id="Fill-1" class="st0" d="M1.5,20.1V6C2,6.3,2.6,6.5,3.2,6.5h1c0,0,0,0,0,0h17l0,3.2h-5c-1.6,0-2.9,1.3-2.9,2.9v0v2.4v0
					c0,1.6,1.3,2.9,2.9,2.9h5l0,0.2v3.6h-18C2.3,21.9,1.5,21.1,1.5,20.1z M3.2,1.5h15.6L19,1.6L19,1.7v0V5H3.2c-1,0-1.7-0.8-1.7-1.7
					v0C1.5,2.3,2.3,1.5,3.2,1.5z M16.2,11.3H22h0h0.3v5.3h-6c-0.8,0-1.4-0.6-1.4-1.4v-2.4C14.8,11.9,15.4,11.3,16.2,11.3z M22,23.4
					c0.2,0,0.4-0.1,0.5-0.2c0.1-0.1,0.2-0.3,0.2-0.5v-4.4v0l0-0.2H23c0.2,0,0.4-0.1,0.5-0.2c0.1-0.1,0.2-0.3,0.2-0.5v-6.8
					c0-0.2-0.1-0.4-0.2-0.5c-0.1-0.1-0.3-0.2-0.5-0.2h-0.3l0-4c0-0.2-0.1-0.4-0.2-0.5C22.4,5.1,22.2,5,22,5h-1.4V1.7v0v0v0v0l0,0
					c0-0.4-0.2-0.8-0.5-1.1C19.7,0.2,19.3,0,18.9,0H3.2C1.5,0,0,1.5,0,3.2v0c0,0.1,0,0.1,0,0.2c0,0,0,0.1,0,0.1v16.6
					c0,1.8,1.5,3.2,3.2,3.2H22L22,23.4z"/>
				<path id="Fill-4" class="st0" d="M16.2,14.5c0.1,0.1,0.3,0.2,0.5,0.2c0.2,0,0.4-0.1,0.5-0.2l0.1-0.1c0.1-0.1,0.2-0.3,0.2-0.5
					c0-0.2-0.1-0.4-0.2-0.5l-0.1-0.1c-0.3-0.3-0.8-0.3-1.1,0l-0.1,0.1C15.8,13.7,15.8,14.2,16.2,14.5L16.2,14.5z"/>
			</g>
		</g>
	</g>
</g>
</svg>
