<?xml version="1.0" encoding="utf-8"?>
<!-- Generator: Adobe Illustrator 22.1.0, SVG Export Plug-In . SVG Version: 6.00 Build 0)  -->
<svg version="1.1" id="Layer_1" xmlns="http://www.w3.org/2000/svg" xmlns:xlink="http://www.w3.org/1999/xlink" x="0px" y="0px"
	 viewBox="0 0 24 24" style="enable-background:new 0 0 24 24;" xml:space="preserve">
<style type="text/css">
	.st0{fill:#35424F;}
</style>
<title>ico</title>
<desc>Created with Sketch.</desc>
<g id="test-frontend">
	<g id="catalog-album-tracks" transform="translate(-18.000000, -492.000000)">
		<g id="menu-side" transform="translate(-1.000000, 0.000000)">
			<g id="ico" transform="translate(19.000000, 492.000000)">
				<path id="Fill-1" class="st0" d="M16.4,12.5l5.9-1.6l0,0l0,0l0,0v1.3l-6.6,2v-0.9C15.8,13,16.1,12.6,16.4,12.5z M21.4,19.7
					c-0.6,0-1-0.5-1-1c0-0.6,0.5-1,1-1c0.6,0,1,0.5,1,1C22.4,19.3,22,19.7,21.4,19.7z M13.3,22.1c-0.6,0-1-0.5-1-1c0-0.6,0.4-1,1-1
					c0.6,0,1,0.4,1,1C14.3,21.6,13.9,22.1,13.3,22.1z M15.9,11.1c-1,0.3-1.6,1.2-1.6,2.2v5.5c-0.3-0.1-0.6-0.2-1-0.2
					c-1.4,0-2.5,1.1-2.5,2.5c0,1.4,1.1,2.5,2.5,2.5c1.4,0,2.5-1.1,2.5-2.5c0,0,0,0,0,0v-5.3l6.6-2v2.6c-0.3-0.1-0.6-0.2-1-0.2
					c-1.4,0-2.5,1.1-2.5,2.5c0,1.4,1.1,2.5,2.5,2.5c1.4,0,2.5-1.1,2.5-2.5c0,0,0,0,0,0c0,0,0,0,0,0v-7.8c0-0.5-0.2-0.9-0.6-1.2
					c-0.3-0.2-0.6-0.3-0.9-0.3c-0.1,0-0.3,0-0.4,0.1L15.9,11.1L15.9,11.1z"/>
				<path id="Fill-4" class="st0" d="M0.8,1.5h18c0.4,0,0.8-0.3,0.8-0.8S19.1,0,18.7,0h-18C0.3,0,0,0.3,0,0.8S0.3,1.5,0.8,1.5"/>
				<path id="Fill-6" class="st0" d="M0.8,6.9h18c0.4,0,0.8-0.3,0.8-0.8s-0.3-0.8-0.8-0.8h-18C0.3,5.4,0,5.8,0,6.2S0.3,6.9,0.8,6.9"
					/>
				<path id="Fill-8" class="st0" d="M0.8,12.5h8.4c0.4,0,0.8-0.3,0.8-0.8c0-0.4-0.3-0.8-0.8-0.8H0.8C0.3,11,0,11.4,0,11.8
					C0,12.2,0.3,12.5,0.8,12.5"/>
			</g>
		</g>
	</g>
</g>
</svg>
