<?xml version="1.0" encoding="UTF-8"?>
<svg width="19px" height="13px" viewBox="0 0 19 13" version="1.1" xmlns="http://www.w3.org/2000/svg" xmlns:xlink="http://www.w3.org/1999/xlink">
    <!-- Generator: Sketch 52.6 (67491) - http://www.bohemiancoding.com/sketch -->
    <title>Combined Shape</title>
    <desc>Created with Sketch.</desc>
    <g id="test-frontend" stroke="none" stroke-width="1" fill="none" fill-rule="evenodd">
        <g id="desktop-album-page" transform="translate(-839.000000, -1621.000000)" fill="#FFFFFF" fill-rule="nonzero">
            <g id="player-color" transform="translate(0.000000, 1601.000000)">
                <g id="player">
                    <g id="player-navigation" transform="translate(744.000000, 9.000000)">
                        <path d="M104,17.865985 L95.4696774,23.945213 C95.4184562,23.9814281 95.3591475,24 95.2995392,24 C95.2519124,24 95.2039862,23.9882378 95.1602535,23.9647134 C95.0617051,23.9111645 95,23.8056143 95,23.6904687 L95,11.3092159 C95,11.1940703 95.0617051,11.0888296 95.1602535,11.0352807 C95.2585023,10.9823508 95.3777189,10.9891605 95.4696774,11.0544716 L104,17.1336996 L104,11.3092159 C104,11.1940703 104.061705,11.0888296 104.160253,11.0352807 C104.258502,10.9823508 104.377719,10.9891605 104.469677,11.0544716 L113.156313,17.245098 C113.237189,17.3029804 113.285714,17.3980065 113.285714,17.4998423 C113.285714,17.6016781 113.237488,17.6967042 113.156313,17.7545866 L104.469677,23.945213 C104.418456,23.9814281 104.359147,24 104.299539,24 C104.251912,24 104.203986,23.9882378 104.160253,23.9647134 C104.061705,23.9111645 104,23.8056143 104,23.6904687 L104,17.865985 Z" id="Combined-Shape"></path>
                    </g>
                </g>
            </g>
        </g>
    </g>
</svg>